G04 Layer_Color=32896*
%FSLAX43Y43*%
%MOMM*%
G71*
G01*
G75*
%ADD28C,0.200*%
%ADD29C,0.100*%
%ADD30C,0.050*%
D28*
X261430Y250000D02*
X275019Y250000D01*
X250000Y250000D02*
X261430D01*
X250000D02*
X250000Y300000D01*
X285000Y300000D01*
X285000Y250000D02*
X285000Y300000D01*
X275019Y250000D02*
X285000Y250000D01*
D29*
X264500Y292750D02*
Y293750D01*
X264000Y293250D02*
X265000D01*
X262500Y272250D02*
X263500D01*
X263000Y271750D02*
Y272750D01*
X274250Y257100D02*
X275250D01*
X274750Y256600D02*
Y257600D01*
X280750Y272750D02*
X281750D01*
X281250Y272250D02*
Y273250D01*
D30*
X256850Y299500D02*
X272150D01*
X256850Y287000D02*
X272150D01*
X256850D02*
Y299500D01*
X272150Y287000D02*
Y299500D01*
X266150Y270450D02*
Y274050D01*
X259850Y270450D02*
Y274050D01*
Y270450D02*
X266150D01*
X259850Y274050D02*
X266150D01*
X271150Y251450D02*
Y262750D01*
X278350Y251450D02*
Y262750D01*
X271150Y251450D02*
X278350D01*
X271150Y262750D02*
X278350D01*
X284650Y268425D02*
Y277075D01*
X277850Y268425D02*
Y277075D01*
X284650D01*
X277850Y268425D02*
X284650D01*
M02*
