G04 Layer_Physical_Order=2*
G04 Layer_Color=16711680*
%FSLAX43Y43*%
%MOMM*%
G71*
G01*
G75*
%ADD26C,0.800*%
%ADD28C,0.200*%
%ADD29C,0.100*%
%ADD30C,0.050*%
G04:AMPARAMS|DCode=31|XSize=1.5mm|YSize=1.5mm|CornerRadius=0.375mm|HoleSize=0mm|Usage=FLASHONLY|Rotation=270.000|XOffset=0mm|YOffset=0mm|HoleType=Round|Shape=RoundedRectangle|*
%AMROUNDEDRECTD31*
21,1,1.500,0.750,0,0,270.0*
21,1,0.750,1.500,0,0,270.0*
1,1,0.750,-0.375,-0.375*
1,1,0.750,-0.375,0.375*
1,1,0.750,0.375,0.375*
1,1,0.750,0.375,-0.375*
%
%ADD31ROUNDEDRECTD31*%
%ADD32C,1.500*%
%ADD33C,1.524*%
%ADD34C,1.000*%
G36*
X282325Y299592D02*
X282365Y299392D01*
X281122Y298878D01*
X280552Y297500D01*
X281122Y296122D01*
X282500Y295552D01*
X283878Y296122D01*
X284392Y297365D01*
X284592Y297325D01*
X284592Y252675D01*
X284392Y252636D01*
X283878Y253878D01*
X282500Y254448D01*
X281122Y253878D01*
X280552Y252500D01*
X281122Y251122D01*
X282365Y250608D01*
X282325Y250408D01*
X275019Y250408D01*
X261430Y250408D01*
X252675D01*
X252635Y250608D01*
X253878Y251122D01*
X254448Y252500D01*
X253878Y253878D01*
X252500Y254448D01*
X251122Y253878D01*
X250608Y252636D01*
X250408Y252675D01*
X250408Y297325D01*
X250608Y297364D01*
X251122Y296122D01*
X252500Y295552D01*
X253878Y296122D01*
X254448Y297500D01*
X253878Y298878D01*
X252635Y299392D01*
X252675Y299592D01*
X282325Y299592D01*
D02*
G37*
%LPC*%
G36*
X263500Y267258D02*
X262964Y267036D01*
X262856Y266774D01*
X260981Y264899D01*
X259761D01*
X259500Y265008D01*
X258964Y264786D01*
X258742Y264250D01*
X258922Y263816D01*
X258801Y263616D01*
X258153D01*
X258133Y263608D01*
X258111Y263612D01*
X257724Y263535D01*
X257706Y263523D01*
X257684D01*
X257320Y263372D01*
X257304Y263357D01*
X257282Y263352D01*
X256955Y263134D01*
X256942Y263115D01*
X256922Y263107D01*
X256643Y262828D01*
X256635Y262807D01*
X256616Y262795D01*
X256398Y262468D01*
X256393Y262446D01*
X256378Y262430D01*
X256227Y262066D01*
Y262044D01*
X256215Y262026D01*
X256138Y261639D01*
X256142Y261617D01*
X256134Y261597D01*
X256134Y260250D01*
X256197Y260097D01*
X256350Y260034D01*
X260284Y260034D01*
X260284Y254466D01*
X256350Y254466D01*
X256197Y254403D01*
X256197Y254403D01*
X256134Y254250D01*
X256134Y253100D01*
Y252903D01*
X256142Y252883D01*
X256138Y252861D01*
X256215Y252474D01*
X256227Y252456D01*
Y252434D01*
X256378Y252070D01*
X256393Y252054D01*
X256398Y252032D01*
X256616Y251705D01*
X256635Y251692D01*
X256643Y251672D01*
X256922Y251393D01*
X256943Y251385D01*
X256955Y251367D01*
X257282Y251148D01*
X257304Y251143D01*
X257320Y251128D01*
X257684Y250977D01*
X257706D01*
X257724Y250965D01*
X258111Y250888D01*
X258133Y250892D01*
X258153Y250884D01*
X266847D01*
X266867Y250892D01*
X266889Y250888D01*
X267276Y250965D01*
X267294Y250977D01*
X267316D01*
X267680Y251128D01*
X267696Y251143D01*
X267718Y251148D01*
X268045Y251367D01*
X268058Y251385D01*
X268078Y251393D01*
X268357Y251672D01*
X268365Y251692D01*
X268384Y251705D01*
X268602Y252032D01*
X268607Y252054D01*
X268622Y252070D01*
X268773Y252434D01*
Y252456D01*
X268785Y252474D01*
X268862Y252861D01*
X268858Y252883D01*
X268866Y252903D01*
X268866Y254250D01*
X268803Y254403D01*
X268650Y254466D01*
X264716D01*
X264716Y260034D01*
X268650D01*
X268803Y260097D01*
X268866Y260250D01*
X268866Y261350D01*
X268866Y261350D01*
X268866Y261350D01*
X268866Y261363D01*
Y261564D01*
X268858Y261584D01*
X268862Y261606D01*
X268784Y262000D01*
X268772Y262018D01*
Y262040D01*
X268618Y262411D01*
X268603Y262427D01*
X268598Y262448D01*
X268375Y262782D01*
X268357Y262794D01*
X268348Y262815D01*
X268065Y263098D01*
X268044Y263107D01*
X268032Y263125D01*
X267698Y263348D01*
X267677Y263353D01*
X267661Y263368D01*
X267290Y263522D01*
X267268D01*
X267250Y263534D01*
X266856Y263612D01*
X266834Y263608D01*
X266814Y263616D01*
X266613D01*
X266613Y263616D01*
X261771Y263616D01*
X261735Y263816D01*
X263774Y265856D01*
X264036Y265964D01*
X264258Y266500D01*
X264036Y267036D01*
X263500Y267258D01*
D02*
G37*
G36*
X277000Y292273D02*
X276043Y291877D01*
X275647Y290920D01*
X276043Y289963D01*
X277000Y289567D01*
X277957Y289963D01*
X278353Y290920D01*
X277957Y291877D01*
X277000Y292273D01*
D02*
G37*
G36*
X277375Y296997D02*
X276625D01*
X276185Y296815D01*
X276003Y296375D01*
Y295625D01*
X276185Y295185D01*
X276625Y295003D01*
X277375D01*
X277815Y295185D01*
X277997Y295625D01*
Y296375D01*
X277815Y296815D01*
X277375Y296997D01*
D02*
G37*
%LPD*%
D26*
X261250Y264250D02*
X263500Y266500D01*
X259500Y264250D02*
X261250D01*
D28*
X261430Y250000D02*
X275019Y250000D01*
X250000Y250000D02*
X261430D01*
X250000D02*
X250000Y300000D01*
X285000Y300000D01*
X285000Y250000D02*
X285000Y300000D01*
X275019Y250000D02*
X285000Y250000D01*
D29*
X264500Y292750D02*
Y293750D01*
X264000Y293250D02*
X265000D01*
X262500Y272250D02*
X263500D01*
X263000Y271750D02*
Y272750D01*
X274250Y257100D02*
X275250D01*
X274750Y256600D02*
Y257600D01*
X280750Y272750D02*
X281750D01*
X281250Y272250D02*
Y273250D01*
D30*
X256850Y299500D02*
X272150D01*
X256850Y287000D02*
X272150D01*
X256850D02*
Y299500D01*
X272150Y287000D02*
Y299500D01*
X266150Y270450D02*
Y274050D01*
X259850Y270450D02*
Y274050D01*
Y270450D02*
X266150D01*
X259850Y274050D02*
X266150D01*
X271150Y251450D02*
Y262750D01*
X278350Y251450D02*
Y262750D01*
X271150Y251450D02*
X278350D01*
X271150Y262750D02*
X278350D01*
X284650Y268425D02*
Y277075D01*
X277850Y268425D02*
Y277075D01*
X284650D01*
X277850Y268425D02*
X284650D01*
D31*
X277000Y296000D02*
D03*
D32*
Y293460D02*
D03*
Y290920D02*
D03*
D33*
X282500Y297500D02*
D03*
X252500D02*
D03*
X282500Y252500D02*
D03*
X252500D02*
D03*
D34*
X261000Y274500D02*
D03*
X262500D02*
D03*
X259500D02*
D03*
X259500Y264250D02*
D03*
X263500Y266500D02*
D03*
X267500D02*
D03*
X265500D02*
D03*
X261500D02*
D03*
X274750Y268250D02*
D03*
X272500D02*
D03*
X258000Y274500D02*
D03*
Y276000D02*
D03*
Y277500D02*
D03*
Y289500D02*
D03*
Y291000D02*
D03*
X259500Y276000D02*
D03*
Y277500D02*
D03*
Y289500D02*
D03*
Y291000D02*
D03*
X261000Y276000D02*
D03*
Y277500D02*
D03*
Y289500D02*
D03*
Y291000D02*
D03*
X262500Y276000D02*
D03*
Y277500D02*
D03*
Y289500D02*
D03*
Y291000D02*
D03*
X271500Y271500D02*
D03*
Y273000D02*
D03*
X273000Y271500D02*
D03*
Y273000D02*
D03*
X274500Y271500D02*
D03*
Y273000D02*
D03*
X276000Y271500D02*
D03*
Y273000D02*
D03*
X279000D02*
D03*
X280500D02*
D03*
X282000D02*
D03*
M02*
