G04 Layer_Color=16711935*
%FSLAX43Y43*%
%MOMM*%
G71*
G01*
G75*
%ADD28C,0.200*%
%ADD29C,0.100*%
%ADD30C,0.050*%
G04:AMPARAMS|DCode=53|XSize=1.7mm|YSize=1.7mm|CornerRadius=0.475mm|HoleSize=0mm|Usage=FLASHONLY|Rotation=270.000|XOffset=0mm|YOffset=0mm|HoleType=Round|Shape=RoundedRectangle|*
%AMROUNDEDRECTD53*
21,1,1.700,0.750,0,0,270.0*
21,1,0.750,1.700,0,0,270.0*
1,1,0.950,-0.375,-0.375*
1,1,0.950,-0.375,0.375*
1,1,0.950,0.375,0.375*
1,1,0.950,0.375,-0.375*
%
%ADD53ROUNDEDRECTD53*%
%ADD54C,1.700*%
%ADD55C,1.724*%
%ADD56C,1.200*%
D28*
X261430Y250000D02*
X275019Y250000D01*
X250000Y250000D02*
X261430D01*
X250000D02*
X250000Y300000D01*
X285000Y300000D01*
X285000Y250000D02*
X285000Y300000D01*
X275019Y250000D02*
X285000Y250000D01*
D29*
X264500Y292750D02*
Y293750D01*
X264000Y293250D02*
X265000D01*
X262500Y272250D02*
X263500D01*
X263000Y271750D02*
Y272750D01*
X274250Y257100D02*
X275250D01*
X274750Y256600D02*
Y257600D01*
X280750Y272750D02*
X281750D01*
X281250Y272250D02*
Y273250D01*
D30*
X256850Y299500D02*
X272150D01*
X256850Y287000D02*
X272150D01*
X256850D02*
Y299500D01*
X272150Y287000D02*
Y299500D01*
X266150Y270450D02*
Y274050D01*
X259850Y270450D02*
Y274050D01*
Y270450D02*
X266150D01*
X259850Y274050D02*
X266150D01*
X271150Y251450D02*
Y262750D01*
X278350Y251450D02*
Y262750D01*
X271150Y251450D02*
X278350D01*
X271150Y262750D02*
X278350D01*
X284650Y268425D02*
Y277075D01*
X277850Y268425D02*
Y277075D01*
X284650D01*
X277850Y268425D02*
X284650D01*
D53*
X277000Y296000D02*
D03*
D54*
Y293460D02*
D03*
Y290920D02*
D03*
D55*
X282500Y297500D02*
D03*
X252500D02*
D03*
X282500Y252500D02*
D03*
X252500D02*
D03*
D56*
X261000Y274500D02*
D03*
X262500D02*
D03*
X259500D02*
D03*
X259500Y264250D02*
D03*
X263500Y266500D02*
D03*
X267500D02*
D03*
X265500D02*
D03*
X261500D02*
D03*
X274750Y268250D02*
D03*
X272500D02*
D03*
X258000Y274500D02*
D03*
Y276000D02*
D03*
Y277500D02*
D03*
Y289500D02*
D03*
Y291000D02*
D03*
X259500Y276000D02*
D03*
Y277500D02*
D03*
Y289500D02*
D03*
Y291000D02*
D03*
X261000Y276000D02*
D03*
Y277500D02*
D03*
Y289500D02*
D03*
Y291000D02*
D03*
X262500Y276000D02*
D03*
Y277500D02*
D03*
Y289500D02*
D03*
Y291000D02*
D03*
X271500Y271500D02*
D03*
Y273000D02*
D03*
X273000Y271500D02*
D03*
Y273000D02*
D03*
X274500Y271500D02*
D03*
Y273000D02*
D03*
X276000Y271500D02*
D03*
Y273000D02*
D03*
X279000D02*
D03*
X280500D02*
D03*
X282000D02*
D03*
M02*
